<?xml version="1.0" encoding="UTF-8"?>
<svg xmlns="http://www.w3.org/2000/svg" xmlns:xlink="http://www.w3.org/1999/xlink" id="Group_27107" data-name="Group 27107" width="179.335" height="39.468" viewBox="0 0 179.335 39.468">
  <defs>
    <clipPath id="clip-path">
      <rect id="Rectangle_6" data-name="Rectangle 6" width="179.335" height="39.468" fill="#fff"></rect>
    </clipPath>
  </defs>
  <g id="Group_27070" data-name="Group 27070" clip-path="url(#clip-path)">
    <path id="Path_42469" data-name="Path 42469" d="M81.725,71.241h9.489A15.962,15.962,0,0,1,71.252,81.72,15.974,15.974,0,0,0,81.725,71.241" transform="translate(-50.564 -50.557)" fill="#fff"></path>
    <path id="Path_42470" data-name="Path 42470" d="M71.252.716A15.961,15.961,0,0,1,91.214,11.2H81.725A15.973,15.973,0,0,0,71.252.716" transform="translate(-50.564)" fill="#fff"></path>
    <path id="Path_42471" data-name="Path 42471" d="M20.681,31.164a15.94,15.94,0,1,1,0-30.448,15.95,15.95,0,0,0,0,30.448" fill="#fff"></path>
    <path id="Path_42472" data-name="Path 42472" d="M59.578,37.256a7.218,7.218,0,0,0-7.218,7.218,7.218,7.218,0,0,0-7.218-7.218,7.221,7.221,0,0,0,7.218-7.221,7.221,7.221,0,0,0,7.218,7.221" transform="translate(-32.036 -21.314)" fill="#fff"></path>
    <path id="Path_42473" data-name="Path 42473" d="M199.226,28.871h.35l-.42,4.337c-1.4,1.539-3.917,3.463-8.919,3.463-8.919,0-12.627-6.261-12.627-12.627s3.708-12.627,12.627-12.627c5.176,0,7.8,2.2,8.919,3.463l.42,4.337h-.35a8.865,8.865,0,0,0-8.464-7.24c-5.212,0-9.689,4.407-9.689,12.067s4.477,12.067,9.689,12.067a8.857,8.857,0,0,0,8.464-7.24" transform="translate(-126.042 -8.102)" fill="#fff"></path>
    <path id="Path_42474" data-name="Path 42474" d="M281.253,33.9l-.35,3.323H264.219v-.35c.909,0,.909-1.014.909-1.014V14.106s0-1.014-.909-1.014v-.35h5.037v.35c-.874,0-.874,1.014-.874,1.014V36.7h9.583c1.854,0,2.623-1.26,2.9-2.8Z" transform="translate(-187.504 -9.042)" fill="#fff"></path>
    <path id="Path_42475" data-name="Path 42475" d="M352.392,35.936v.35h-5.386v-.35c.735,0,.944-.42.735-.944l-3.148-7.485h-9.934l-2.868,6.82c-.314.8.105,1.609,1.329,1.609v.35h-4.442v-.35a2.654,2.654,0,0,0,2.553-1.679l9.584-22.84h.28l10.039,23.5c.35.769.7,1.014,1.259,1.014m-8.045-8.989-4.757-11.193L334.9,26.947Z" transform="translate(-233.248 -8.102)" fill="#fff"></path>
    <path id="Path_42476" data-name="Path 42476" d="M432.495,30.016c0,4.267-3.358,6.646-8.814,6.646a10.353,10.353,0,0,1-7.975-3.218l-.42-4.267h.385C417,34.6,420.113,36.1,423.75,36.1s5.806-1.994,5.806-4.687c0-3.288-4.267-4.792-6.96-6.016-2.239-.979-7.1-2.728-7.1-7.275,0-4.057,3.218-6.716,8.255-6.716a10.374,10.374,0,0,1,7.415,2.833l.454,4.337h-.384c-.945-4.267-3.253-6.611-7.415-6.611-3.253,0-5.632,1.819-5.632,4.582,0,3.113,3.148,4.3,6.506,5.876,4.162,1.959,7.8,3.288,7.8,7.59" transform="translate(-294.71 -8.094)" fill="#fff"></path>
    <path id="Path_42477" data-name="Path 42477" d="M500.193,30.016c0,4.267-3.358,6.646-8.814,6.646a10.354,10.354,0,0,1-7.975-3.218l-.42-4.267h.385c1.329,5.421,4.442,6.926,8.08,6.926s5.806-1.994,5.806-4.687c0-3.288-4.267-4.792-6.96-6.016-2.239-.979-7.1-2.728-7.1-7.275,0-4.057,3.218-6.716,8.255-6.716a10.375,10.375,0,0,1,7.415,2.833l.455,4.337h-.384c-.945-4.267-3.253-6.611-7.415-6.611-3.253,0-5.631,1.819-5.631,4.582,0,3.113,3.148,4.3,6.505,5.876,4.162,1.959,7.8,3.288,7.8,7.59" transform="translate(-342.752 -8.094)" fill="#fff"></path>
    <path id="Path_42478" data-name="Path 42478" d="M567.563,12.622v.385a3.007,3.007,0,0,0-2.9,1.679l-5.946,10.353V35.847a1.1,1.1,0,0,0,.245.665.956.956,0,0,0,.665.28v.35h-5.037v-.35a.9.9,0,0,0,.874-.944V25.493l-6.751-11.682a1.9,1.9,0,0,0-1.644-.8v-.385h6.191v.385c-.769,0-1.189.21-.769.979L558.4,24.374l5.526-9.689c.525-.944.455-1.679-.8-1.679v-.385Z" transform="translate(-388.229 -8.957)" fill="#fff"></path>
    <path id="Path_42479" data-name="Path 42479" d="M314.264,124.01v.569h-3.318v-4.572h3.227v.568H311.6v1.4h2.293v.555H311.6v1.476Z" transform="translate(-220.664 -85.163)" fill="#fff"></path>
    <path id="Path_42480" data-name="Path 42480" d="M333.028,120.006l-2.005,4.572h-.647l-2.012-4.572h.706l1.646,3.756,1.659-3.756Z" transform="translate(-233.025 -85.163)" fill="#fff"></path>
    <path id="Path_42481" data-name="Path 42481" d="M354.7,124.01v.569h-3.318v-4.572h3.227v.568h-2.574v1.4h2.293v.555h-2.293v1.476Z" transform="translate(-249.361 -85.163)" fill="#fff"></path>
    <path id="Path_42482" data-name="Path 42482" d="M375.343,120.006v4.572h-.536l-2.743-3.41v3.41h-.653v-4.572h.536l2.743,3.41v-3.41Z" transform="translate(-263.573 -85.163)" fill="#fff"></path>
    <path id="Path_42483" data-name="Path 42483" d="M393.929,120.574h-1.568v-.568h3.782v.568h-1.568v4h-.647Z" transform="translate(-278.441 -85.163)" fill="#fff"></path>
    <path id="Path_42484" data-name="Path 42484" d="M422.357,123.928l.242-.51a2.352,2.352,0,0,0,1.509.529c.79,0,1.13-.307,1.13-.706,0-1.117-2.769-.411-2.769-2.11,0-.706.548-1.307,1.75-1.307a2.69,2.69,0,0,1,1.47.405l-.216.523a2.36,2.36,0,0,0-1.254-.373c-.777,0-1.111.327-1.111.725,0,1.117,2.77.418,2.77,2.1,0,.7-.562,1.3-1.77,1.3a2.715,2.715,0,0,1-1.751-.575" transform="translate(-299.728 -85.035)" fill="#fff"></path>
    <path id="Path_42485" data-name="Path 42485" d="M442.586,122.606v-2.6h.653v2.574c0,1.012.464,1.47,1.287,1.47s1.293-.457,1.293-1.47v-2.574h.634v2.6a1.935,1.935,0,1,1-3.867,0" transform="translate(-314.083 -85.163)" fill="#fff"></path>
    <path id="Path_42486" data-name="Path 42486" d="M469.162,121.6c0,.993-.719,1.594-1.907,1.594h-1.13v1.385h-.653v-4.572h1.783c1.189,0,1.907.6,1.907,1.594m-.653,0c0-.653-.438-1.025-1.274-1.025h-1.111v2.051h1.111c.836,0,1.274-.372,1.274-1.026" transform="translate(-330.324 -85.163)" fill="#fff"></path>
    <path id="Path_42487" data-name="Path 42487" d="M490.135,121.6c0,.993-.719,1.594-1.907,1.594H487.1v1.385h-.653v-4.572h1.783c1.189,0,1.907.6,1.907,1.594m-.653,0c0-.653-.438-1.025-1.274-1.025H487.1v2.051h1.111c.836,0,1.274-.372,1.274-1.026" transform="translate(-345.207 -85.163)" fill="#fff"></path>
    <path id="Path_42488" data-name="Path 42488" d="M507.415,120.006h.653v4h2.475v.569h-3.129Z" transform="translate(-360.089 -85.163)" fill="#fff"></path>
    <rect id="Rectangle_5" data-name="Rectangle 5" width="0.653" height="4.572" transform="translate(152.644 34.843)" fill="#fff"></rect>
    <path id="Path_42489" data-name="Path 42489" d="M540.977,124.01v.569h-3.318v-4.572h3.227v.568h-2.574v1.4H540.6v.555h-2.293v1.476Z" transform="translate(-381.552 -85.163)" fill="#fff"></path>
    <path id="Path_42490" data-name="Path 42490" d="M560.743,124.578l-.986-1.4c-.091.006-.19.013-.287.013h-1.13v1.391h-.653v-4.572h1.783c1.189,0,1.907.6,1.907,1.594a1.443,1.443,0,0,1-1.006,1.444l1.084,1.535Zm-.019-2.979c0-.653-.438-1.025-1.274-1.025h-1.111v2.058h1.111c.836,0,1.274-.379,1.274-1.032" transform="translate(-395.765 -85.163)" fill="#fff"></path>
    <path id="Path_42491" data-name="Path 42491" d="M577.556,123.928l.242-.51a2.352,2.352,0,0,0,1.509.529c.79,0,1.13-.307,1.13-.706,0-1.117-2.769-.411-2.769-2.11,0-.706.548-1.307,1.75-1.307a2.69,2.69,0,0,1,1.47.405l-.216.523a2.36,2.36,0,0,0-1.254-.373c-.777,0-1.111.327-1.111.725,0,1.117,2.769.418,2.769,2.1,0,.7-.561,1.3-1.77,1.3a2.715,2.715,0,0,1-1.751-.575" transform="translate(-409.865 -85.035)" fill="#fff"></path>
  </g>
</svg>
