<?xml version="1.0" encoding="UTF-8"?>
<svg xmlns="http://www.w3.org/2000/svg" xmlns:xlink="http://www.w3.org/1999/xlink" width="77" height="77" viewBox="0 0 77 77">
  <defs>
    <clipPath id="clip-path">
      <rect id="Rectangle_48" data-name="Rectangle 48" width="43" height="43" transform="translate(578 2899)" fill="#fff" stroke="#707070" stroke-width="1"></rect>
    </clipPath>
  </defs>
  <g id="Group_27097" data-name="Group 27097" transform="translate(-561 -2883)">
    <circle id="Ellipse_1" data-name="Ellipse 1" cx="38.5" cy="38.5" r="38.5" transform="translate(561 2883)" fill="#ac4a2b"></circle>
    <g id="Mask_Group_4585" data-name="Mask Group 4585" transform="translate(0 1)" clip-path="url(#clip-path)">
      <g id="Group_27101" data-name="Group 27101" transform="translate(581.966 2902.436)">
        <g id="Group_27102" data-name="Group 27102" transform="translate(0.093)">
          <path id="Path_43390" data-name="Path 43390" d="M71.518,94.5V109a2.17,2.17,0,0,1-4.34,0v-1.184" transform="translate(-54.029 -75.856)" fill="none" stroke="#fff" stroke-width="1.5"></path>
          <path id="Path_43391" data-name="Path 43391" d="M35.409,27.638a17.72,17.72,0,0,0-3.038-.262,17.336,17.336,0,0,0-7.047,1.484c-.051.022-.1.043-.154.067a17.5,17.5,0,0,0-14.4,0c-.089-.039-.178-.079-.266-.116a17.346,17.346,0,0,0-6.935-1.434,17.72,17.72,0,0,0-3.038.262,17.46,17.46,0,0,1,34.881,0Z" transform="translate(-0.528 -8.83)" fill="none" stroke="#fff" stroke-width="1.5"></path>
          <line id="Line_2" data-name="Line 2" y1="3.106" transform="translate(17.49 -0.936)" fill="none" stroke="#fff" stroke-width="1.5"></line>
          <path id="Path_43392" data-name="Path 43392" d="M64.159,24.621a15.539,15.539,0,0,1-.586,4.246c-.051.022-.1.043-.154.067a17.5,17.5,0,0,0-14.4,0c-.089-.039-.178-.079-.266-.116A15.6,15.6,0,0,1,56.168,11.01,15.578,15.578,0,0,1,64.159,24.621Z" transform="translate(-38.777 -8.838)" fill="none" stroke="#fff" stroke-width="1.5"></path>
        </g>
      </g>
    </g>
  </g>
</svg>
